<?xml version="1.0" encoding="UTF-8"?>
<svg width="1565px" height="1984px" viewBox="0 0 1565 1984" version="1.1" xmlns="http://www.w3.org/2000/svg" xmlns:xlink="http://www.w3.org/1999/xlink">
    <!-- Generator: Sketch 49.2 (51160) - http://www.bohemiancoding.com/sketch -->
    <title>Fill 1</title>
    <desc>Created with Sketch.</desc>
    <defs></defs>
    <g id="Page-1" stroke="none" stroke-width="1" fill="none" fill-rule="evenodd">
        <path d="M1241.34038,775.625422 C1236.66338,776.152422 1233.69338,776.330422 1230.78038,776.841422 C1204.86638,781.395422 1179.00338,786.258422 1153.04038,790.514422 C1135.31638,793.419422 1117.28438,794.339422 1099.94638,799.674422 C1079.30838,806.023422 1061.19438,815.752422 1049.65038,834.966422 C1044.33038,843.820422 1039.17138,852.777422 1033.61338,861.480422 C1020.30438,882.324422 1020.51938,906.585422 1015.99238,929.663422 C1014.17038,938.957422 1020.21138,946.239422 1021.78838,954.642422 C1021.97338,955.623422 1022.10538,956.642422 1022.47638,957.556422 C1024.70438,963.050422 1026.09638,969.151422 1029.42338,973.886422 C1043.57738,994.029422 1055.33238,1015.87742 1072.05838,1034.21142 C1074.50938,1036.89742 1076.46338,1040.07642 1078.40438,1043.18042 C1086.53438,1056.17642 1094.81238,1069.08842 1102.58938,1082.29342 C1115.83538,1104.78242 1126.22438,1128.49442 1132.41238,1153.97142 C1133.15238,1157.01942 1135.43338,1159.76742 1137.28238,1162.45942 C1148.22238,1178.36942 1159.48638,1194.06342 1170.11238,1210.18042 C1173.90238,1215.92842 1176.21338,1222.64942 1179.23238,1228.99442 C1180.11138,1228.39642 1180.83438,1228.15542 1181.12738,1227.65942 C1181.96838,1226.23642 1182.69138,1224.73542 1183.36338,1223.22242 C1191.60538,1204.68942 1201.29038,1186.70442 1204.91738,1166.42242 C1222.28938,1125.04542 1233.24338,1080.89842 1258.31438,1042.82142 C1259.78138,1040.59242 1260.36638,1037.20542 1260.06538,1034.50142 C1259.33038,1027.89742 1257.65338,1021.40542 1256.67938,1014.82142 C1254.04638,997.053422 1251.04438,979.315422 1249.18338,961.462422 C1246.62938,936.970422 1244.94038,912.387422 1242.98838,887.833422 C1242.27738,878.874422 1241.49138,869.894422 1241.41138,860.917422 C1241.19438,836.586422 1241.33938,812.253422 1241.34038,787.920422 L1241.34038,775.625422 Z M859.41638,323.401422 C846.97738,321.150422 834.53138,318.912422 822.15538,316.344422 C815.64938,314.995422 809.32138,312.803422 802.84538,311.278422 C794.45938,309.305422 785.95338,307.827422 777.59138,305.762422 C760.80238,301.616422 744.00538,297.469422 727.34838,292.833422 C716.45038,289.800422 705.72638,286.099422 695.04238,282.358422 C675.78938,275.617422 657.09038,267.750422 641.50838,254.025422 C630.34038,243.790422 622.22938,243.888422 612.71238,245.916422 C584.70538,251.882422 556.53438,257.673422 527.64838,255.933422 C515.41738,255.196422 503.23438,253.218422 491.11238,251.276422 C483.60838,250.074422 476.23238,248.341422 468.69638,249.451422 C466.60738,259.894422 464.93238,269.971422 462.54438,279.877422 C454.59538,312.843422 439.31338,341.879422 416.18538,366.886422 C384.64438,400.988422 347.53338,425.350422 301.41838,434.691422 C280.45638,438.938422 259.46138,440.715422 238.10638,437.893422 C194.69438,432.153422 156.46138,414.365422 122.94938,386.923422 C107.86438,374.571422 94.2313797,360.154422 81.4773797,345.350422 C73.1103797,335.636422 67.1233797,323.762422 60.7353797,312.479422 C51.0553797,295.384422 42.3433797,277.783422 38.7793797,258.197422 C37.6583797,252.034422 36.2693797,245.710422 36.5953797,239.543422 C37.0813797,230.347422 32.7833797,224.378422 26.0053797,219.436422 C23.5923797,217.676422 21.0413797,216.016422 18.3473797,214.748422 C5.2523797,208.584422 0.814379702,197.522422 0.179379702,183.952422 C-1.2316203,153.766422 5.6483797,125.795422 21.9953797,100.276422 C27.3873797,91.8614219 32.8683797,83.5024219 38.3413797,75.1404219 C43.2543797,67.6324219 50.6343797,63.6364219 58.8943797,66.5444219 C71.7363797,71.0664219 79.3133797,65.5904219 88.1093797,57.0704219 C104.43938,41.2524219 123.73638,29.3844219 144.97738,20.7954219 C174.16538,8.99342185 204.47238,1.14142185 235.80838,0.126421851 C294.38338,-1.77057815 345.91738,17.7344219 391.00338,55.0524219 C404.45538,66.1874219 416.23438,78.7614219 426.40338,92.7904219 C430.02538,97.7864219 433.77138,98.3184219 439.16838,97.6784219 C446.39438,96.8214219 453.73238,96.4564219 461.00938,96.5794219 C484.64938,96.9804219 508.28638,97.5924219 531.91838,98.3244219 C562.20238,99.2614219 592.49738,100.047422 622.75638,101.544422 C650.00538,102.893422 677.31338,104.202422 704.40538,107.224422 C728.19938,109.877422 751.72038,114.953422 775.38238,118.831422 C816.45738,125.562422 857.45338,132.866422 898.65738,138.690422 C945.95238,145.375422 992.50838,155.000422 1037.51738,170.983422 C1059.47438,178.780422 1080.25138,189.473422 1100.11938,201.856422 C1115.08838,211.186422 1130.55538,219.713422 1145.65038,228.848422 C1166.99938,241.768422 1188.36238,254.677422 1209.41738,268.068422 C1220.35138,275.021422 1230.72838,282.871422 1241.16538,290.575422 C1245.40938,293.708422 1249.14538,297.531422 1253.94438,301.775422 C1256.70738,298.147422 1259.64638,294.711422 1262.11238,290.964422 C1267.23838,283.174422 1271.70138,274.919422 1277.17938,267.395422 C1288.52838,251.806422 1303.43738,240.269422 1319.82738,230.216422 C1350.64238,211.317422 1384.25338,203.842422 1419.93138,204.302422 C1426.87038,204.391422 1450.30885,207.183303 1457.02985,208.859303 C1470.90185,212.318303 1479.1822,216.239186 1481.06306,217.496022 C1482.94392,218.752858 1494.52548,225.527166 1498.56038,229.310422 C1502.59528,233.093678 1523.78962,249.451422 1538.17938,272.825422 C1552.56914,296.199422 1564.06538,316.229422 1564.62238,342.866422 C1565.05038,363.284422 1565.04438,383.536422 1559.48938,403.356422 C1558.06138,408.456422 1556.45038,413.655422 1553.94138,418.275422 C1542.23438,439.816422 1527.65638,458.765422 1508.14738,474.317422 C1485.05638,492.726422 1460.43538,508.372422 1434.07338,521.351422 C1427.31938,524.676422 1419.70938,526.699422 1412.26338,528.071422 C1401.15338,530.119422 1389.83738,531.035422 1378.61738,532.498422 C1377.04238,532.704422 1375.51538,533.282422 1373.47438,533.816422 C1373.88738,543.271422 1376.50538,551.703422 1380.88538,559.627422 C1391.02738,577.976422 1401.21438,596.298422 1411.43538,614.603422 C1413.05638,617.508422 1414.64138,620.520422 1416.76538,623.042422 C1424.30238,632.000422 1428.01538,642.561422 1430.36838,653.778422 C1432.48838,663.882422 1435.12438,673.896422 1436.77438,684.073422 C1441.19038,711.320422 1440.93138,738.633422 1434.25738,765.431422 C1430.34938,781.120422 1421.99938,794.955422 1409.90538,806.020422 C1405.66538,809.898422 1405.23438,813.577422 1406.14138,819.162422 C1414.15038,868.466422 1415.34538,917.860422 1407.02938,967.313422 C1404.65738,981.423422 1403.11138,995.670422 1400.96438,1009.82042 C1398.37138,1026.90742 1396.03138,1044.05742 1392.66038,1060.99542 C1390.06938,1074.00742 1386.57238,1086.89942 1382.54438,1099.54942 C1376.68738,1117.94542 1369.53538,1135.93442 1363.76538,1154.35542 C1356.81438,1176.54342 1345.67538,1196.36142 1333.20838,1215.84942 C1317.64438,1240.17842 1301.75138,1264.37442 1289.17538,1290.53742 C1284.87638,1299.47942 1278.92138,1307.63142 1273.63438,1316.08942 C1271.86938,1318.91042 1269.47138,1321.37742 1267.97638,1324.31842 C1259.57338,1340.84842 1247.70238,1354.74742 1235.34938,1368.34342 C1232.47838,1371.50242 1230.59338,1375.53642 1227.90138,1378.88442 C1225.86538,1381.41542 1223.64038,1384.38342 1220.83038,1385.56242 C1216.70638,1387.29542 1214.76238,1390.04842 1212.93238,1393.83842 C1204.97838,1410.31442 1196.93538,1426.75942 1188.43138,1442.95642 C1182.98438,1453.33242 1178.22638,1463.80942 1175.62638,1475.32842 C1173.95038,1482.74842 1171.49738,1490.08042 1168.58038,1497.11442 C1162.49638,1511.78842 1159.45838,1526.82242 1159.41538,1542.79642 C1159.26038,1600.78142 1158.67738,1658.76642 1158.08938,1716.74942 C1157.97838,1727.72142 1157.42938,1738.71142 1156.49938,1749.64442 C1155.66138,1759.48442 1159.36638,1767.86942 1163.43938,1776.31142 C1172.25238,1794.58242 1180.86838,1812.95142 1189.82538,1831.15142 C1194.37838,1840.40242 1198.75138,1849.89742 1204.64138,1858.27242 C1208.06838,1863.14542 1214.00538,1866.59942 1219.39638,1869.66642 C1229.50038,1875.41742 1240.00938,1880.46042 1250.39238,1885.71642 C1253.05538,1887.06342 1255.80238,1888.31842 1258.63138,1889.25742 C1282.59538,1897.20642 1302.84638,1910.77942 1319.62438,1929.55142 C1331.09438,1942.38542 1324.19038,1962.99442 1307.15738,1966.07142 C1297.35738,1967.84242 1287.30538,1968.17442 1277.43138,1969.60542 C1227.44538,1976.84942 1177.70238,1974.09042 1128.15138,1965.82242 C1107.03138,1962.29842 1086.59438,1955.80442 1067.35738,1946.52742 C1053.00938,1939.60942 1042.63238,1929.08342 1037.75338,1912.36342 C1030.80938,1888.55942 1032.44838,1864.80642 1034.17038,1840.98042 C1036.02938,1815.24342 1034.66638,1789.70942 1032.40038,1764.13542 C1026.19538,1743.64542 1024.39238,1727.54642 1022.76338,1711.22942 C1021.73238,1700.90342 1017.78038,1690.41442 1013.11738,1681.00142 C1002.62838,1659.82842 991.19438,1639.14242 985.84138,1614.35942 C981.09338,1615.94642 977.31938,1616.80742 973.90338,1618.42442 C963.38438,1623.40542 952.73338,1628.20542 942.64238,1633.96842 C932.82538,1639.57242 923.49038,1646.06642 914.20438,1652.54342 C893.99938,1666.63542 873.77538,1680.71242 853.91538,1695.28142 C839.70438,1705.70542 826.11338,1716.97342 812.15838,1727.75042 C807.61138,1731.26242 805.65838,1735.64142 805.08738,1741.37242 C801.91038,1773.24842 795.97238,1804.60242 787.44938,1835.51942 C782.05338,1855.09842 777.60238,1874.94342 773.00438,1894.73442 C769.13238,1911.40042 763.10138,1926.69542 753.17238,1941.10742 C745.57238,1952.13942 736.76538,1959.80342 724.88638,1964.97142 C720.34138,1966.94742 715.95938,1969.58642 712.00638,1972.58642 C700.19838,1981.55042 686.83338,1984.13542 672.47038,1982.95942 C666.17338,1982.44342 659.80738,1982.02542 653.65238,1980.72042 C645.89338,1979.07442 642.35038,1974.66342 641.77638,1966.75042 C641.51338,1963.13742 641.87338,1959.41442 642.42838,1955.81442 C646.07638,1932.12942 649.92938,1908.47542 653.56838,1884.78742 C656.55238,1865.36042 660.03438,1845.97442 662.02038,1826.43942 C664.33338,1803.67742 662.99238,1781.04142 652.52938,1760.02042 C649.43938,1753.81242 645.54538,1747.87742 641.24538,1742.42942 C636.23238,1736.07642 634.00238,1729.10942 633.65038,1721.22242 C632.90538,1704.61642 638.68338,1689.75142 646.24638,1675.54042 C650.32838,1667.86842 657.17338,1663.34742 666.02838,1661.67442 C669.75338,1660.96942 673.44238,1658.96342 676.64938,1656.80842 C689.62738,1648.08842 702.49138,1639.19142 715.23438,1630.13042 C721.19138,1625.89442 727.26538,1621.62742 732.42438,1616.50642 C743.05638,1605.95142 753.36338,1595.04142 763.34938,1583.86942 C788.95738,1555.21742 816.54038,1528.72042 847.31538,1505.64042 C854.32138,1500.38542 860.28038,1494.35742 864.93838,1486.81542 C873.82038,1472.43142 885.57138,1460.78742 899.94438,1451.73842 C905.27838,1448.38042 909.91338,1443.90242 915.26538,1440.57642 C925.11538,1434.45542 934.74138,1427.51742 945.39238,1423.23642 C966.77638,1414.64342 981.50938,1399.84042 991.07138,1379.44342 C995.90838,1369.12742 992.91338,1362.36142 983.65738,1355.76842 C952.91038,1333.86542 918.94438,1317.36542 886.96938,1297.53142 C873.97038,1289.46942 859.76238,1283.22942 847.29238,1274.47042 C829.06938,1261.67142 811.49738,1247.84742 794.49938,1233.45342 C786.73438,1226.87942 781.02838,1217.88042 774.33238,1210.02842 C772.40738,1207.77242 770.67038,1204.95542 768.18838,1203.64942 C759.10638,1198.87542 752.48238,1191.46742 745.53238,1184.25642 C736.28638,1174.66042 725.89738,1166.96742 713.87038,1160.48542 C694.92738,1150.27542 676.71538,1138.43742 663.32738,1120.49842 C653.41238,1107.21242 643.72438,1093.48442 629.94738,1083.58142 C597.92538,1044.82642 575.09738,1005.26942 576.41138,955.858422 C577.12938,928.906422 577.69138,901.946422 578.85838,875.013422 C579.28838,865.070422 581.11238,855.173422 582.61838,845.303422 C583.00438,842.772422 584.42838,840.338422 585.65638,838.008422 C602.58438,805.892422 619.56838,773.805422 636.50638,741.693422 C637.43638,739.932422 638.17438,738.054422 638.85738,736.178422 C649.60838,706.622422 664.99138,679.424422 680.87138,652.419422 C691.49738,634.350422 701.44538,615.958422 707.25338,595.479422 C711.88038,579.165422 718.41538,563.400422 723.79638,547.289422 C728.00838,534.674422 731.33938,521.755422 735.82138,509.243422 C739.85638,497.982422 744.27338,486.755422 749.77138,476.160422 C753.21138,469.530422 758.69138,463.856422 763.73738,458.183422 C773.24938,447.492422 783.57938,437.503422 792.72538,426.519422 C810.83638,404.765422 827.14738,381.494422 847.62638,361.749422 C850.98138,358.514422 854.17238,354.986422 857.97138,352.364422 C865.16338,347.398422 869.22238,340.387422 872.62838,332.870422 C870.34838,326.378422 865.26138,324.459422 859.41638,323.401422 Z" id="Fill-1" fill="#FFFFFF"></path>
    </g>
</svg>